<svg xmlns="http://www.w3.org/2000/svg" viewBox="0 0 1024 1024">
  <path
    fill="#000000"
    d="M168 246c0-65 53-118 118-118h452c65 0 118 53 118 118v532c0 65-53 118-118 118H286c-65 0-118-53-118-118V246zm138 4c-25 0-46 20-46 46v432c0 25 21 46 46 46s46-21 46-46V296c0-26-21-46-46-46zm124 6c-35 0-64 29-64 64s29 64 64 64h256c35 0 64-29 64-64s-29-64-64-64H430zm0 192c-35 0-64 29-64 64s29 64 64 64h256c35 0 64-29 64-64s-29-64-64-64H430zm0 192c-35 0-64 29-64 64s29 64 64 64h256c35 0 64-29 64-64s-29-64-64-64H430z"
  />
</svg>
